<?xml version="1.0" encoding="UTF-8" standalone="no"?>
<svg
   xmlns:dc="http://purl.org/dc/elements/1.1/"
   xmlns:cc="http://creativecommons.org/ns#"
   xmlns:rdf="http://www.w3.org/1999/02/22-rdf-syntax-ns#"
   xmlns:svg="http://www.w3.org/2000/svg"
   xmlns="http://www.w3.org/2000/svg"
   xmlns:sodipodi="http://sodipodi.sourceforge.net/DTD/sodipodi-0.dtd"
   xmlns:inkscape="http://www.inkscape.org/namespaces/inkscape"
   id="svg8"
   version="1.1"
   viewBox="0 0 26.379064 26.566645"
   height="26.566645mm"
   width="26.379065mm"
   sodipodi:docname="languages_simple.svg"
   inkscape:version="0.92.3 (2405546, 2018-03-11)">
  <sodipodi:namedview
     pagecolor="#ffffff"
     bordercolor="#666666"
     borderopacity="1"
     objecttolerance="10"
     gridtolerance="10"
     guidetolerance="10"
     inkscape:pageopacity="0"
     inkscape:pageshadow="2"
     inkscape:window-width="1920"
     inkscape:window-height="1058"
     id="namedview887"
     showgrid="false"
     inkscape:pagecheckerboard="true"
     inkscape:zoom="5.6568543"
     inkscape:cx="46.260794"
     inkscape:cy="54.521262"
     inkscape:window-x="1920"
     inkscape:window-y="0"
     inkscape:window-maximized="0"
     inkscape:current-layer="svg8" />
  <defs
     id="defs2">
    <inkscape:path-effect
       effect="bounding_box"
       id="path-effect1310"
       is_visible="true"
       linkedpath=""
       visualbounds="false" />
    <inkscape:path-effect
       effect="gears"
       id="path-effect1308"
       is_visible="true"
       teeth="10"
       phi="5"
       min_radius="5" />
  </defs>
  <metadata
     id="metadata5">
    <rdf:RDF>
      <cc:Work
         rdf:about="">
        <dc:format>image/svg+xml</dc:format>
        <dc:type
           rdf:resource="http://purl.org/dc/dcmitype/StillImage" />
        <dc:title></dc:title>
      </cc:Work>
    </rdf:RDF>
  </metadata>
  <rect
     style="opacity:1;vector-effect:none;fill:none;fill-opacity:1;fill-rule:nonzero;stroke:#ffffff;stroke-width:0.52916664;stroke-linecap:round;stroke-linejoin:miter;stroke-miterlimit:4;stroke-dasharray:none;stroke-dashoffset:0;stroke-opacity:1;paint-order:normal"
     id="rect14234-9"
     width="4.563446"
     height="3.5824962"
     x="0.26458326"
     y="16.7598"
     ry="0.91613191" />
  <circle
     style="opacity:1;vector-effect:none;fill:none;fill-opacity:1;fill-rule:nonzero;stroke:#ffffff;stroke-width:0.52916664;stroke-linecap:round;stroke-linejoin:miter;stroke-miterlimit:4;stroke-dasharray:none;stroke-dashoffset:0;stroke-opacity:1;paint-order:stroke markers fill"
     id="path14393"
     cx="2.6589057"
     cy="14.389024"
     r="1.1634576" />
  <rect
     style="opacity:1;vector-effect:none;fill:none;fill-opacity:1;fill-rule:nonzero;stroke:#ffffff;stroke-width:0.52916664;stroke-linecap:round;stroke-linejoin:miter;stroke-miterlimit:4;stroke-dasharray:none;stroke-dashoffset:0;stroke-opacity:1;paint-order:normal"
     id="rect14234-9-8"
     width="4.563446"
     height="3.5824962"
     x="9.4743729"
     y="22.719563"
     ry="0.91613191" />
  <circle
     style="opacity:1;vector-effect:none;fill:none;fill-opacity:1;fill-rule:nonzero;stroke:#ffffff;stroke-width:0.52916664;stroke-linecap:round;stroke-linejoin:miter;stroke-miterlimit:4;stroke-dasharray:none;stroke-dashoffset:0;stroke-opacity:1;paint-order:stroke markers fill"
     id="path14393-5"
     cx="11.868695"
     cy="20.348793"
     r="1.1634576" />
  <rect
     style="opacity:1;vector-effect:none;fill:none;fill-opacity:1;fill-rule:nonzero;stroke:#ffffff;stroke-width:0.52916664;stroke-linecap:round;stroke-linejoin:miter;stroke-miterlimit:4;stroke-dasharray:none;stroke-dashoffset:0;stroke-opacity:1;paint-order:normal"
     id="rect14234-9-4"
     width="4.563446"
     height="3.5824962"
     x="21.551035"
     y="16.944866"
     ry="0.91613191" />
  <circle
     style="opacity:1;vector-effect:none;fill:none;fill-opacity:1;fill-rule:nonzero;stroke:#ffffff;stroke-width:0.52916664;stroke-linecap:round;stroke-linejoin:miter;stroke-miterlimit:4;stroke-dasharray:none;stroke-dashoffset:0;stroke-opacity:1;paint-order:stroke markers fill"
     id="path14393-7"
     cx="23.945356"
     cy="14.57409"
     r="1.1634576" />
  <path
     style="color:#000000;font-style:normal;font-variant:normal;font-weight:normal;font-stretch:normal;font-size:medium;line-height:normal;font-family:sans-serif;font-variant-ligatures:normal;font-variant-position:normal;font-variant-caps:normal;font-variant-numeric:normal;font-variant-alternates:normal;font-feature-settings:normal;text-indent:0;text-align:start;text-decoration:none;text-decoration-line:none;text-decoration-style:solid;text-decoration-color:#000000;letter-spacing:normal;word-spacing:normal;text-transform:none;writing-mode:lr-tb;direction:ltr;text-orientation:mixed;dominant-baseline:auto;baseline-shift:baseline;text-anchor:start;white-space:normal;shape-padding:0;clip-rule:nonzero;display:inline;overflow:visible;visibility:visible;opacity:1;isolation:auto;mix-blend-mode:normal;color-interpolation:sRGB;color-interpolation-filters:linearRGB;solid-color:#000000;solid-opacity:1;vector-effect:none;fill:#423195;fill-opacity:1;fill-rule:nonzero;stroke:none;stroke-width:1.99936998;stroke-linecap:square;stroke-linejoin:round;stroke-miterlimit:4;stroke-dasharray:none;stroke-dashoffset:0;stroke-opacity:1;paint-order:normal;color-rendering:auto;image-rendering:auto;shape-rendering:auto;text-rendering:auto;enable-background:accumulate"
     d="M 50.943359 33.947266 C 51.001295 33.847829 51.051305 33.744766 51.111328 33.646484 C 51.052213 33.743796 50.997286 33.841542 50.939453 33.939453 C 50.940589 33.942191 50.942222 33.944528 50.943359 33.947266 z "
     id="path1261"
     transform="scale(0.26458334)" />
  <path
     style="color:#000000;font-style:normal;font-variant:normal;font-weight:normal;font-stretch:normal;font-size:medium;line-height:normal;font-family:sans-serif;font-variant-ligatures:normal;font-variant-position:normal;font-variant-caps:normal;font-variant-numeric:normal;font-variant-alternates:normal;font-feature-settings:normal;text-indent:0;text-align:start;text-decoration:none;text-decoration-line:none;text-decoration-style:solid;text-decoration-color:#000000;letter-spacing:normal;word-spacing:normal;text-transform:none;writing-mode:lr-tb;direction:ltr;text-orientation:mixed;dominant-baseline:auto;baseline-shift:baseline;text-anchor:start;white-space:normal;shape-padding:0;clip-rule:nonzero;display:inline;overflow:visible;visibility:visible;opacity:1;isolation:auto;mix-blend-mode:normal;color-interpolation:sRGB;color-interpolation-filters:linearRGB;solid-color:#000000;solid-opacity:1;vector-effect:none;fill:#423195;fill-opacity:1;fill-rule:nonzero;stroke:none;stroke-width:1.99936998;stroke-linecap:square;stroke-linejoin:round;stroke-miterlimit:4;stroke-dasharray:none;stroke-dashoffset:0;stroke-opacity:1;paint-order:normal;color-rendering:auto;image-rendering:auto;shape-rendering:auto;text-rendering:auto;enable-background:accumulate"
     d="M 54.162109 18.220703 C 54.104579 17.988687 54.138473 17.75698 54.072266 17.525391 C 53.909471 16.955947 53.654545 16.437761 53.447266 15.892578 C 53.445852 15.894375 53.444772 15.89664 53.443359 15.898438 C 53.64931 16.441995 53.902272 16.958074 54.064453 17.525391 C 54.13182 17.761034 54.095996 17.998147 54.154297 18.234375 C 54.157187 18.229948 54.159214 18.225127 54.162109 18.220703 z "
     id="path1259"
     transform="scale(0.26458334)" />
  <path
     style="color:#000000;font-style:normal;font-variant:normal;font-weight:normal;font-stretch:normal;font-size:medium;line-height:normal;font-family:sans-serif;font-variant-ligatures:normal;font-variant-position:normal;font-variant-caps:normal;font-variant-numeric:normal;font-variant-alternates:normal;font-feature-settings:normal;text-indent:0;text-align:start;text-decoration:none;text-decoration-line:none;text-decoration-style:solid;text-decoration-color:#000000;letter-spacing:normal;word-spacing:normal;text-transform:none;writing-mode:lr-tb;direction:ltr;text-orientation:mixed;dominant-baseline:auto;baseline-shift:baseline;text-anchor:start;white-space:normal;shape-padding:0;clip-rule:nonzero;display:inline;overflow:visible;visibility:visible;opacity:1;isolation:auto;mix-blend-mode:normal;color-interpolation:sRGB;color-interpolation-filters:linearRGB;solid-color:#000000;solid-opacity:1;vector-effect:none;fill:#ffffff;fill-opacity:1;fill-rule:nonzero;stroke:none;stroke-width:1.99936998;stroke-linecap:square;stroke-linejoin:round;stroke-miterlimit:4;stroke-dasharray:none;stroke-dashoffset:0;stroke-opacity:1;paint-order:normal;color-rendering:auto;image-rendering:auto;shape-rendering:auto;text-rendering:auto;enable-background:accumulate"
     d="M 67.839844 8.8886719 C 64.008336 8.8417982 60.160824 10.002238 56.90625 12.378906 C 56.147612 12.932905 55.63264 13.685861 54.982422 14.333984 C 55.263025 14.993478 55.533417 15.658194 55.753906 16.351562 C 56.491834 15.531563 57.162084 14.658649 58.080078 13.988281 C 60.97972 11.8708 64.402536 10.839169 67.810547 10.880859 C 71.218562 10.922551 74.617866 12.044638 77.464844 14.232422 C 83.1588 18.607988 85.276968 26.200444 82.677734 32.894531 A 0.99978497 0.99978497 0 0 0 82.611328 33.226562 L 82.308594 44.195312 L 69.722656 43.25 L 69.722656 45.255859 L 83.201172 46.269531 A 0.99978497 0.99978497 0 0 0 84.279297 45.302734 L 84.611328 33.306641 L 84.611328 33.285156 C 87.336409 25.851408 84.982532 17.484997 78.683594 12.644531 C 75.488136 10.188954 71.671351 8.9355437 67.839844 8.8886719 z "
     id="path1255"
     transform="scale(0.26458334)" />
  <path
     style="color:#000000;font-style:normal;font-variant:normal;font-weight:normal;font-stretch:normal;font-size:medium;line-height:normal;font-family:sans-serif;font-variant-ligatures:normal;font-variant-position:normal;font-variant-caps:normal;font-variant-numeric:normal;font-variant-alternates:normal;font-feature-settings:normal;text-indent:0;text-align:start;text-decoration:none;text-decoration-line:none;text-decoration-style:solid;text-decoration-color:#000000;letter-spacing:normal;word-spacing:normal;text-transform:none;writing-mode:lr-tb;direction:ltr;text-orientation:mixed;dominant-baseline:auto;baseline-shift:baseline;text-anchor:start;white-space:normal;shape-padding:0;clip-rule:nonzero;display:inline;overflow:visible;visibility:visible;opacity:1;isolation:auto;mix-blend-mode:normal;color-interpolation:sRGB;color-interpolation-filters:linearRGB;solid-color:#000000;solid-opacity:1;vector-effect:none;fill:#ffffff;fill-opacity:1;fill-rule:nonzero;stroke:none;stroke-width:2;stroke-linecap:round;stroke-linejoin:round;stroke-miterlimit:4;stroke-dasharray:none;stroke-dashoffset:0;stroke-opacity:1;paint-order:markers fill stroke;color-rendering:auto;image-rendering:auto;shape-rendering:auto;text-rendering:auto;enable-background:accumulate"
     d="M 32.216797 1.421875 C 28.571169 1.7004744 24.963028 2.8951502 21.753906 5.0351562 C 13.291048 10.678622 9.8960504 21.411583 13.457031 30.908203 L 13.457031 44.556641 A 1.0001001 1.0001001 0 0 0 14.585938 45.546875 L 26.951172 43.914062 C 27.753448 44.182662 28.568467 44.331319 29.380859 44.503906 L 29.380859 42.523438 C 28.664671 42.356007 27.944942 42.217479 27.238281 41.966797 A 1.0001001 1.0001001 0 0 0 26.773438 41.914062 L 15.457031 43.412109 L 15.457031 30.863281 A 1.0001001 1.0001001 0 0 0 15.390625 30.494141 C 11.970512 21.785141 15.076927 11.886348 22.861328 6.6953125 C 26.753529 4.0997942 31.27837 3.0412594 35.675781 3.4394531 C 40.073193 3.8376469 44.338515 5.6948057 47.701172 8.9472656 C 53.505971 14.561837 55.230849 22.998503 52.431641 30.318359 L 54.511719 30.318359 C 57.219257 22.432363 55.294 13.501096 49.097656 7.5078125 C 45.400976 3.9322725 40.703594 1.8857419 35.861328 1.4472656 C 34.650762 1.3376466 33.432006 1.3290085 32.216797 1.421875 z "
     id="path14437"
     transform="scale(0.26458334)" />
  <path
     style="opacity:1;vector-effect:none;fill:none;fill-opacity:1;fill-rule:nonzero;stroke:#50dbf0;stroke-width:0.52916664;stroke-linecap:round;stroke-linejoin:miter;stroke-miterlimit:4;stroke-dasharray:none;stroke-dashoffset:0;stroke-opacity:1;paint-order:normal"
     d="m 9.0895383,8.5512993 h 8.0428597 c 0.436279,0 0.787511,0.3512291 0.787511,0.7875111 v 6.0130186 c 0,0.436279 -0.351232,0.787511 -0.787511,0.787511 H 12.606605 L 11.601246,17.420916 10.595891,16.13934 H 9.0895383 c -0.4362794,0 -0.7875085,-0.351232 -0.7875085,-0.787511 V 9.3388104 c 0,-0.436282 0.3512291,-0.7875111 0.7875085,-0.7875111 z"
     id="rect14234-9-86"
     inkscape:connector-curvature="0" />
  <path
     style="opacity:1;vector-effect:none;fill:none;fill-opacity:1;fill-rule:nonzero;stroke:#ffffff;stroke-width:0.52916664;stroke-linecap:round;stroke-linejoin:miter;stroke-miterlimit:4;stroke-dasharray:none;stroke-dashoffset:0;stroke-opacity:1;paint-order:normal"
     d="m 9.0895382,8.5512992 h 8.0428598 c 0.436279,0 0.787511,0.3512291 0.787511,0.7875111 v 6.0130187 c 0,0.436279 -0.351232,0.787511 -0.787511,0.787511 H 12.606605 L 11.601246,17.420916 10.595891,16.13934 H 9.0895382 c -0.4362793,0 -0.7875084,-0.351232 -0.7875084,-0.787511 V 9.3388103 c 0,-0.436282 0.3512291,-0.7875111 0.7875084,-0.7875111 z"
     id="rect14234-9-86-5"
     inkscape:connector-curvature="0" />
</svg>
