<?xml version="1.0" encoding="UTF-8" standalone="no"?>
<svg
   xmlns:dc="http://purl.org/dc/elements/1.1/"
   xmlns:cc="http://creativecommons.org/ns#"
   xmlns:rdf="http://www.w3.org/1999/02/22-rdf-syntax-ns#"
   xmlns:svg="http://www.w3.org/2000/svg"
   xmlns="http://www.w3.org/2000/svg"
   id="svg8"
   version="1.1"
   viewBox="0 0 26.379064 26.566645"
   height="26.566645mm"
   width="26.379065mm">
  <defs
     id="defs2" />
  <metadata
     id="metadata5">
    <rdf:RDF>
      <cc:Work
         rdf:about="">
        <dc:format>image/svg+xml</dc:format>
        <dc:type
           rdf:resource="http://purl.org/dc/dcmitype/StillImage" />
        <dc:title></dc:title>
      </cc:Work>
    </rdf:RDF>
  </metadata>
  <g
     transform="translate(-85.827902,-139.4561)"
     id="layer1">
    <g
       id="g3648"
       transform="matrix(0.26458333,0,0,0.26458333,-2.7656877,19.957231)">
      <rect
         style="opacity:1;vector-effect:none;fill:none;fill-opacity:1;fill-rule:nonzero;stroke:#50dbf0;stroke-width:2;stroke-linecap:round;stroke-linejoin:miter;stroke-miterlimit:4;stroke-dasharray:none;stroke-dashoffset:0;stroke-opacity:1;paint-order:normal"
         id="rect14234-9"
         width="17.247671"
         height="13.540143"
         x="335.84192"
         y="514.99341"
         ry="3.4625459" />
      <circle
         style="opacity:1;vector-effect:none;fill:none;fill-opacity:1;fill-rule:nonzero;stroke:#50dbf0;stroke-width:2;stroke-linecap:round;stroke-linejoin:miter;stroke-miterlimit:4;stroke-dasharray:none;stroke-dashoffset:0;stroke-opacity:1;paint-order:stroke markers fill"
         id="path14393"
         cx="344.89133"
         cy="506.03299"
         r="4.3973203" />
      <rect
         style="opacity:1;vector-effect:none;fill:none;fill-opacity:1;fill-rule:nonzero;stroke:#433299;stroke-width:2;stroke-linecap:round;stroke-linejoin:miter;stroke-miterlimit:4;stroke-dasharray:none;stroke-dashoffset:0;stroke-opacity:1;paint-order:normal"
         id="rect14234-9-8"
         width="17.247671"
         height="13.540143"
         x="370.65057"
         y="537.51849"
         ry="3.4625459" />
      <circle
         style="opacity:1;vector-effect:none;fill:none;fill-opacity:1;fill-rule:nonzero;stroke:#433299;stroke-width:2;stroke-linecap:round;stroke-linejoin:miter;stroke-miterlimit:4;stroke-dasharray:none;stroke-dashoffset:0;stroke-opacity:1;paint-order:stroke markers fill"
         id="path14393-5"
         cx="379.69998"
         cy="528.55811"
         r="4.3973203" />
      <rect
         style="opacity:1;vector-effect:none;fill:none;fill-opacity:1;fill-rule:nonzero;stroke:#50dbf0;stroke-width:2;stroke-linecap:round;stroke-linejoin:miter;stroke-miterlimit:4;stroke-dasharray:none;stroke-dashoffset:0;stroke-opacity:1;paint-order:normal"
         id="rect14234-9-4"
         width="17.247671"
         height="13.540143"
         x="416.29465"
         y="515.69287"
         ry="3.4625459" />
      <circle
         style="opacity:1;vector-effect:none;fill:none;fill-opacity:1;fill-rule:nonzero;stroke:#50dbf0;stroke-width:2;stroke-linecap:round;stroke-linejoin:miter;stroke-miterlimit:4;stroke-dasharray:none;stroke-dashoffset:0;stroke-opacity:1;paint-order:stroke markers fill"
         id="path14393-7"
         cx="425.34406"
         cy="506.73245"
         r="4.3973203" />
      <path
         style="opacity:1;vector-effect:none;fill:none;fill-opacity:1;fill-rule:nonzero;stroke:#423195;stroke-width:1.9993701;stroke-linecap:square;stroke-linejoin:round;stroke-miterlimit:4;stroke-dasharray:none;stroke-dashoffset:0;stroke-opacity:1;paint-order:normal"
         d="m 403.50403,495.82179 c -7.60629,0.46502 -14.60815,-4.14158 -17.19184,-11.31071 -2.58369,-7.16913 -0.13027,-15.18334 6.02395,-19.67749 6.15422,-4.49415 14.53493,-4.39163 20.57737,0.25173 6.04244,4.64336 8.29908,12.7152 5.54077,19.81898 l -0.33329,12.0187 z"
         id="path923" />
      <path
         style="opacity:1;vector-effect:none;fill:#ffffff;fill-opacity:1;fill-rule:nonzero;stroke:#ffffff;stroke-width:2.122118;stroke-linecap:square;stroke-linejoin:round;stroke-miterlimit:4;stroke-dasharray:none;stroke-dashoffset:0;stroke-opacity:1;paint-order:markers fill stroke"
         d="m 348.10232,482.96903 c -3.81108,-9.70457 -0.34205,-20.75326 8.33223,-26.53772 8.67428,-5.78445 20.20757,-4.74009 27.7017,2.50845 7.49412,7.24853 8.92204,18.74064 3.42971,27.60277 -5.49233,8.86213 -16.41933,12.69724 -26.24546,9.21151 l -13.21845,1.74847 z"
         id="path14437-7" />
      <path
         style="opacity:1;vector-effect:none;fill:#ffffff;fill-opacity:1;fill-rule:nonzero;stroke:#433299;stroke-width:1.99899995;stroke-linecap:square;stroke-linejoin:round;stroke-miterlimit:4;stroke-dasharray:1.999, 3.998;stroke-dashoffset:0;stroke-opacity:1;paint-order:markers fill stroke"
         d="m 349.29896,482.51287 c -3.58998,-9.14155 -0.32221,-19.54923 7.84882,-24.99809 8.17103,-5.44886 19.0352,-4.46509 26.09454,2.36291 7.05934,6.828 8.40442,17.65338 3.23073,26.00136 -5.17368,8.34798 -15.46673,11.96059 -24.72278,8.67709 l -12.45157,1.64703 z"
         id="path14437" />
      <path
         style="opacity:1;vector-effect:none;fill:none;fill-opacity:1;fill-rule:nonzero;stroke:#ffffff;stroke-width:2.21188784;stroke-linecap:round;stroke-linejoin:miter;stroke-miterlimit:4;stroke-dasharray:none;stroke-dashoffset:0;stroke-opacity:1;paint-order:normal"
         d="m 367.58583,482.16052 h 33.61871 c 1.82363,0 3.29176,1.46812 3.29176,3.29175 v 25.1341 c 0,1.82362 -1.46813,3.29175 -3.29176,3.29175 h -18.91757 l -4.20234,5.35692 -4.20233,-5.35692 h -6.29647 c -1.82363,0 -3.29175,-1.46813 -3.29175,-3.29175 v -25.1341 c 0,-1.82363 1.46812,-3.29175 3.29175,-3.29175 z"
         id="rect14234-9-86-6" />
      <path
         style="opacity:1;vector-effect:none;fill:#ffffff;fill-opacity:1;fill-rule:nonzero;stroke:#50dbf0;stroke-width:2;stroke-linecap:round;stroke-linejoin:miter;stroke-miterlimit:4;stroke-dasharray:none;stroke-dashoffset:0;stroke-opacity:1;paint-order:normal"
         d="m 369.19608,483.96915 h 30.39821 c 1.64893,0 2.97642,1.32748 2.97642,2.97642 v 22.72637 c 0,1.64893 -1.32749,2.97642 -2.97642,2.97642 h -17.10536 l -3.79978,4.84375 -3.79977,-4.84375 h -5.6933 c -1.64893,0 -2.97641,-1.32749 -2.97641,-2.97642 v -22.72637 c 0,-1.64894 1.32748,-2.97642 2.97641,-2.97642 z"
         id="rect14234-9-86" />
    </g>
  </g>
</svg>
